<svg xmlns="http://www.w3.org/2000/svg" xmlns:xlink="http://www.w3.org/1999/xlink" width="435" height="468" viewBox="0 0 435 468">
  <metadata><?xpacket begin="﻿" id="W5M0MpCehiHzreSzNTczkc9d"?>
<x:xmpmeta xmlns:x="adobe:ns:meta/" x:xmptk="Adobe XMP Core 5.6-c142 79.160924, 2017/07/13-01:06:39        ">
   <rdf:RDF xmlns:rdf="http://www.w3.org/1999/02/22-rdf-syntax-ns#">
      <rdf:Description rdf:about=""/>
   </rdf:RDF>
</x:xmpmeta>
                                                                                                    
                                                                                                    
                                                                                                    
                                                                                                    
                                                                                                    
                                                                                                    
                                                                                                    
                                                                                                    
                                                                                                    
                                                                                                    
                                                                                                    
                                                                                                    
                                                                                                    
                                                                                                    
                                                                                                    
                                                                                                    
                                                                                                    
                                                                                                    
                                                                                                    
                                                                                                    
                           
<?xpacket end="w"?></metadata>
<defs>
    <style>
      .cls-1 {
        filter: url(#filter);
      }

      .cls-2 {
        fill: none;
        stroke: #fff;
        stroke-width: 9.51px;
      }

      .cls-3 {
        font-size: 337.25px;
        text-anchor: end;
        font-family: "Open Sans";
        font-weight: 300;
      }

      .cls-3, .cls-4 {
        fill: #fff;
      }

      .cls-4 {
        fill-rule: evenodd;
        filter: url(#filter-2);
      }
    </style>
    <filter id="filter" filterUnits="userSpaceOnUse">
      <feOffset result="offset" dy="8" in="SourceAlpha"/>
      <feGaussianBlur result="blur" stdDeviation="3.606"/>
      <feFlood result="flood" flood-color="#050006" flood-opacity="0.4"/>
      <feComposite result="composite" operator="in" in2="blur"/>
      <feBlend result="blend" in="SourceGraphic"/>
    </filter>
    <filter id="filter-2" x="-2" y="344" width="439" height="82" filterUnits="userSpaceOnUse">
      <feOffset result="offset" dy="2" in="SourceAlpha"/>
      <feGaussianBlur result="blur" stdDeviation="3.606"/>
      <feFlood result="flood" flood-color="#050006" flood-opacity="0.4"/>
      <feComposite result="composite" operator="in" in2="blur"/>
      <feBlend result="blend" in="SourceGraphic"/>
    </filter>
  </defs>
  <g id="Agrupar_1" data-name="Agrupar 1" class="cls-1">
    <circle id="Elipse_1" data-name="Elipse 1" class="cls-2" cx="217.5" cy="157.5" r="153.5"/>
    <text id="S" class="cls-3" transform="translate(259.832 218.018) scale(0.462)"><tspan x="0">S</tspan></text>
  </g>
  <path id="Carlos_Santos" data-name="Carlos Santos" class="cls-4" d="M47.081,364.456l1.361-3.055a29.384,29.384,0,0,0-12.717-2.656,23.825,23.825,0,0,0-12.235,3.072,20.3,20.3,0,0,0-8.068,8.715,28.953,28.953,0,0,0-2.806,13.049q0,11.854,5.877,18.461t16.1,6.608a36.616,36.616,0,0,0,12.02-1.694v-2.988a38.292,38.292,0,0,1-11.223,1.561q-9.2,0-14.145-5.744T16.3,383.648q0-10.161,5.246-16T35.925,361.8a24.642,24.642,0,0,1,11.156,2.656h0Zm33.867,43.53V383.98q0-6.541-2.939-9.629t-8.882-3.088a27.508,27.508,0,0,0-11.754,2.789l1.229,2.855A22.549,22.549,0,0,1,69,374.118q4.648,0,6.74,2.623t2.092,7.77V386.9l-6.873.2q-8.335.166-12.733,3.088a9.3,9.3,0,0,0-4.4,8.2,9.737,9.737,0,0,0,2.955,7.537q2.955,2.722,8.268,2.723a14.957,14.957,0,0,0,6.79-1.444,17.151,17.151,0,0,0,5.595-4.931h0.266l0.83,5.711h2.424Zm-21.566-4.2a6.732,6.732,0,0,1-2.075-5.263,6.84,6.84,0,0,1,3.237-6.259q3.237-2.009,10.841-2.374l6.309-.266v3.553q0,5.877-3.337,9.181t-9.114,3.3A8.437,8.437,0,0,1,59.383,403.786Zm41.355-30.979A15.3,15.3,0,0,0,95.99,378.4H95.757l-0.332-6.508H92.636v36.092h3.287V388.064a15.969,15.969,0,0,1,2.955-9.9,9.093,9.093,0,0,1,7.57-3.918,19.259,19.259,0,0,1,4.682.565l0.63-3.155a28.32,28.32,0,0,0-4.914-.465A11.118,11.118,0,0,0,100.738,372.807Zm21.648-16.486H119.1v51.665h3.287V356.321Zm37.7,19.873q-4.233-5-11.671-5-7.471,0-11.754,4.931t-4.283,13.763a23.915,23.915,0,0,0,1.925,9.9,14.66,14.66,0,0,0,5.545,6.574,15.312,15.312,0,0,0,8.368,2.291q7.536,0,11.82-4.964t4.283-13.8Q164.322,381.192,160.089,376.194Zm-21.018,2.091q3.237-4.1,9.214-4.1a11.226,11.226,0,0,1,9.28,4.117q3.3,4.118,3.3,11.588,0,7.438-3.27,11.605a12.345,12.345,0,0,1-18.495,0q-3.27-4.167-3.27-11.605Q135.834,382.387,139.071,378.285Zm56.512,16.087a10.34,10.34,0,0,0-3.337-3.2A38.732,38.732,0,0,0,185.141,388q-5.844-2.091-7.853-3.785a5.608,5.608,0,0,1-2.009-4.515,4.485,4.485,0,0,1,2.59-4.051,14.281,14.281,0,0,1,7.006-1.461,26.008,26.008,0,0,1,9.862,2.191l1.228-2.988a28.484,28.484,0,0,0-11.09-2.192q-6.11,0-9.513,2.358a7.4,7.4,0,0,0-3.4,6.408,8.01,8.01,0,0,0,1.112,4.333,10.506,10.506,0,0,0,3.3,3.188,41.521,41.521,0,0,0,7.6,3.37,24.309,24.309,0,0,1,7.255,3.652,5.771,5.771,0,0,1,2.208,4.582,5.4,5.4,0,0,1-2.773,4.732q-2.772,1.776-8.118,1.776a25.341,25.341,0,0,1-11.488-2.723v3.553q4.25,2.224,11.488,2.225,6.774,0,10.459-2.607a8.579,8.579,0,0,0,3.686-7.454A7.836,7.836,0,0,0,195.583,394.372Zm54.387-4.565a12.191,12.191,0,0,0-4.167-4.184,41.212,41.212,0,0,0-8.533-3.8,43.849,43.849,0,0,1-7.637-3.3,8.993,8.993,0,0,1-3.2-3.1A8.871,8.871,0,0,1,225.45,371a8.135,8.135,0,0,1,3.187-6.773q3.188-2.49,8.567-2.49a29.976,29.976,0,0,1,11.554,2.523l1.229-2.922a32.132,32.132,0,0,0-12.85-2.59,16.942,16.942,0,0,0-10.973,3.437,11.844,11.844,0,0,0-1.428,16.8q2.838,2.971,10.276,5.528a46.64,46.64,0,0,1,7.7,3.221,10.606,10.606,0,0,1,3.786,3.3,8.307,8.307,0,0,1,1.162,4.566,8.689,8.689,0,0,1-3.5,7.188q-3.5,2.74-9.48,2.74A34.533,34.533,0,0,1,221.3,403.3v3.387q4.747,1.959,13.647,1.959,7.4,0,11.87-3.553a11.652,11.652,0,0,0,4.466-9.629A11.413,11.413,0,0,0,249.97,389.807Zm35.08,18.179V383.98q0-6.541-2.939-9.629t-8.882-3.088a27.508,27.508,0,0,0-11.754,2.789l1.229,2.855a22.549,22.549,0,0,1,10.392-2.789q4.649,0,6.741,2.623t2.092,7.77V386.9l-6.874.2q-8.334.166-12.733,3.088a9.3,9.3,0,0,0-4.4,8.2,9.734,9.734,0,0,0,2.955,7.537q2.955,2.722,8.267,2.723a14.956,14.956,0,0,0,6.79-1.444,17.142,17.142,0,0,0,5.595-4.931H281.8l0.83,5.711h2.424Zm-21.566-4.2a6.73,6.73,0,0,1-2.075-5.263,6.84,6.84,0,0,1,3.237-6.259q3.237-2.009,10.841-2.374l6.309-.266v3.553q0,5.877-3.337,9.181t-9.114,3.3A8.438,8.438,0,0,1,263.484,403.786Zm61.675,4.2V384.378q0-13.18-12.285-13.182-9,0-12.518,5.645h-0.2l-0.631-4.947h-2.789v36.092h3.287V388.064q0-7.338,3-10.609t9.48-3.27q4.813,0,7.1,2.473t2.291,7.919v23.409h3.254Zm16.635-4.25q-1.461-1.992-1.461-6.143V374.749h10.592v-2.855H340.333v-8.733H338.64l-1.66,8.168-5.346,1.494v1.926h5.346v23.309q0,5.478,2.274,8.035t7.056,2.557a17.435,17.435,0,0,0,5.512-.8V405.2a24.675,24.675,0,0,1-5.446.531A5.3,5.3,0,0,1,341.794,403.736Zm43.447-27.542q-4.233-5-11.671-5-7.471,0-11.754,4.931t-4.283,13.763a23.915,23.915,0,0,0,1.925,9.9A14.66,14.66,0,0,0,365,406.359a15.312,15.312,0,0,0,8.368,2.291q7.536,0,11.82-4.964t4.283-13.8Q389.474,381.192,385.241,376.194Zm-21.018,2.091q3.237-4.1,9.214-4.1a11.226,11.226,0,0,1,9.28,4.117q3.3,4.118,3.3,11.588,0,7.438-3.27,11.605a12.345,12.345,0,0,1-18.5,0q-3.27-4.167-3.27-11.605Q360.986,382.387,364.223,378.285Zm56.512,16.087a10.34,10.34,0,0,0-3.337-3.2A38.732,38.732,0,0,0,410.293,388q-5.844-2.091-7.853-3.785a5.608,5.608,0,0,1-2.009-4.515,4.485,4.485,0,0,1,2.59-4.051,14.281,14.281,0,0,1,7.006-1.461,26.008,26.008,0,0,1,9.862,2.191l1.228-2.988a28.484,28.484,0,0,0-11.09-2.192q-6.109,0-9.513,2.358a7.4,7.4,0,0,0-3.4,6.408,8,8,0,0,0,1.112,4.333,10.506,10.506,0,0,0,3.3,3.188,41.521,41.521,0,0,0,7.6,3.37,24.309,24.309,0,0,1,7.255,3.652,5.771,5.771,0,0,1,2.208,4.582,5.4,5.4,0,0,1-2.773,4.732q-2.772,1.776-8.118,1.776a25.341,25.341,0,0,1-11.488-2.723v3.553q4.25,2.224,11.488,2.225,6.774,0,10.459-2.607a8.579,8.579,0,0,0,3.686-7.454A7.836,7.836,0,0,0,420.735,394.372Z"/>
</svg>
